<mxfile host="app.diagrams.net" modified="2024-03-19T14:46:00.420Z" agent="Mozilla/5.0 (X11; Linux x86_64) AppleWebKit/537.36 (KHTML, like Gecko) Chrome/116.0.0.0 Safari/537.36" etag="0xIxPIicRJ02TRES3mJy" version="24.0.5" type="device">
  <diagram name="Page-1" id="X8TondI6Elb1mZth1I_f">
    <mxGraphModel dx="1259" dy="712" grid="1" gridSize="10" guides="1" tooltips="1" connect="1" arrows="1" fold="1" page="1" pageScale="1" pageWidth="850" pageHeight="1100" math="0" shadow="0">
      <root>
        <mxCell id="0" />
        <mxCell id="1" parent="0" />
        <mxCell id="9D67T1jhqR6nWc_I9IYC-1" value="Domotic fishtnak&amp;nbsp;made by us" style="verticalAlign=top;align=left;spacingTop=8;spacingLeft=2;spacingRight=12;shape=cube;size=10;direction=south;fontStyle=4;html=1;whiteSpace=wrap;" vertex="1" parent="1">
          <mxGeometry x="580" y="50" width="260" height="350" as="geometry" />
        </mxCell>
        <mxCell id="9D67T1jhqR6nWc_I9IYC-2" value="PC gamer/server self hosted" style="verticalAlign=top;align=left;spacingTop=8;spacingLeft=2;spacingRight=12;shape=cube;size=10;direction=south;fontStyle=4;html=1;whiteSpace=wrap;" vertex="1" parent="1">
          <mxGeometry x="30" y="40" width="480" height="540" as="geometry" />
        </mxCell>
        <mxCell id="9D67T1jhqR6nWc_I9IYC-3" value="pop os linux" style="verticalAlign=top;align=left;spacingTop=8;spacingLeft=2;spacingRight=12;shape=cube;size=10;direction=south;fontStyle=4;html=1;whiteSpace=wrap;" vertex="1" parent="1">
          <mxGeometry x="40" y="90" width="440" height="460" as="geometry" />
        </mxCell>
        <mxCell id="9D67T1jhqR6nWc_I9IYC-4" value="Django" style="verticalAlign=top;align=left;spacingTop=8;spacingLeft=2;spacingRight=12;shape=cube;size=10;direction=south;fontStyle=4;html=1;whiteSpace=wrap;" vertex="1" parent="1">
          <mxGeometry x="50" y="150" width="410" height="270" as="geometry" />
        </mxCell>
        <mxCell id="9D67T1jhqR6nWc_I9IYC-5" value="chatsales" style="html=1;whiteSpace=wrap;" vertex="1" parent="1">
          <mxGeometry x="60" y="180" width="110" height="50" as="geometry" />
        </mxCell>
        <mxCell id="9D67T1jhqR6nWc_I9IYC-6" value="map" style="html=1;whiteSpace=wrap;" vertex="1" parent="1">
          <mxGeometry x="60" y="240" width="110" height="50" as="geometry" />
        </mxCell>
        <mxCell id="9D67T1jhqR6nWc_I9IYC-7" value="loging/register" style="html=1;whiteSpace=wrap;" vertex="1" parent="1">
          <mxGeometry x="60" y="300" width="110" height="50" as="geometry" />
        </mxCell>
        <mxCell id="9D67T1jhqR6nWc_I9IYC-8" value="fishtank visualiser" style="html=1;whiteSpace=wrap;" vertex="1" parent="1">
          <mxGeometry x="190" y="180" width="110" height="50" as="geometry" />
        </mxCell>
        <mxCell id="9D67T1jhqR6nWc_I9IYC-9" value="catalog" style="html=1;whiteSpace=wrap;" vertex="1" parent="1">
          <mxGeometry x="330" y="180" width="110" height="50" as="geometry" />
        </mxCell>
        <mxCell id="9D67T1jhqR6nWc_I9IYC-10" value="admin inteface" style="html=1;whiteSpace=wrap;" vertex="1" parent="1">
          <mxGeometry x="330" y="240" width="110" height="50" as="geometry" />
        </mxCell>
        <mxCell id="9D67T1jhqR6nWc_I9IYC-11" value="informative&lt;span style=&quot;color: rgba(0, 0, 0, 0); font-family: monospace; font-size: 0px; text-align: start; text-wrap: nowrap;&quot;&gt;%3CmxGraphModel%3E%3Croot%3E%3CmxCell%20id%3D%220%22%2F%3E%3CmxCell%20id%3D%221%22%20parent%3D%220%22%2F%3E%3CmxCell%20id%3D%222%22%20value%3D%22admin%20inteface%22%20style%3D%22html%3D1%3BwhiteSpace%3Dwrap%3B%22%20vertex%3D%221%22%20parent%3D%221%22%3E%3CmxGeometry%20x%3D%22330%22%20y%3D%22240%22%20width%3D%22110%22%20height%3D%2250%22%20as%3D%22geometry%22%2F%3E%3C%2FmxCell%3E%3C%2Froot%3E%3C%2FmxGraphModel%3E&lt;/span&gt;&lt;span style=&quot;color: rgba(0, 0, 0, 0); font-family: monospace; font-size: 0px; text-align: start; text-wrap: nowrap;&quot;&gt;%3CmxGraphModel%3E%3Croot%3E%3CmxCell%20id%3D%220%22%2F%3E%3CmxCell%20id%3D%221%22%20parent%3D%220%22%2F%3E%3CmxCell%20id%3D%222%22%20value%3D%22admin%20inteface%22%20style%3D%22html%3D1%3BwhiteSpace%3Dwrap%3B%22%20vertex%3D%221%22%20parent%3D%221%22%3E%3CmxGeometry%20x%3D%22330%22%20y%3D%22240%22%20width%3D%22110%22%20height%3D%2250%22%20as%3D%22geometry%22%2F%3E%3C%2FmxCell%3E%3C%2Froot%3E%3C%2FmxGraphModel%3E&lt;/span&gt;" style="html=1;whiteSpace=wrap;" vertex="1" parent="1">
          <mxGeometry x="330" y="300" width="110" height="50" as="geometry" />
        </mxCell>
        <mxCell id="9D67T1jhqR6nWc_I9IYC-12" value="pay" style="html=1;whiteSpace=wrap;" vertex="1" parent="1">
          <mxGeometry x="190" y="240" width="110" height="50" as="geometry" />
        </mxCell>
        <mxCell id="9D67T1jhqR6nWc_I9IYC-13" value="fishdiases" style="html=1;whiteSpace=wrap;" vertex="1" parent="1">
          <mxGeometry x="190" y="300" width="110" height="50" as="geometry" />
        </mxCell>
        <mxCell id="9D67T1jhqR6nWc_I9IYC-14" value="Esp32" style="verticalAlign=top;align=left;spacingTop=8;spacingLeft=2;spacingRight=12;shape=cube;size=10;direction=south;fontStyle=4;html=1;whiteSpace=wrap;" vertex="1" parent="1">
          <mxGeometry x="590" y="90" width="220" height="300" as="geometry" />
        </mxCell>
        <mxCell id="9D67T1jhqR6nWc_I9IYC-15" value="Feeder" style="verticalAlign=top;align=left;spacingTop=8;spacingLeft=2;spacingRight=12;shape=cube;size=10;direction=south;fontStyle=4;html=1;whiteSpace=wrap;" vertex="1" parent="1">
          <mxGeometry x="600" y="130" width="180" height="70" as="geometry" />
        </mxCell>
        <mxCell id="9D67T1jhqR6nWc_I9IYC-16" value="Sensors (dht11,turbity,water level)" style="verticalAlign=top;align=left;spacingTop=8;spacingLeft=2;spacingRight=12;shape=cube;size=10;direction=south;fontStyle=4;html=1;whiteSpace=wrap;" vertex="1" parent="1">
          <mxGeometry x="600" y="205" width="180" height="45" as="geometry" />
        </mxCell>
        <mxCell id="9D67T1jhqR6nWc_I9IYC-17" value="Wifi" style="verticalAlign=top;align=left;spacingTop=8;spacingLeft=2;spacingRight=12;shape=cube;size=10;direction=south;fontStyle=4;html=1;whiteSpace=wrap;" vertex="1" parent="1">
          <mxGeometry x="600" y="265" width="180" height="45" as="geometry" />
        </mxCell>
        <mxCell id="9D67T1jhqR6nWc_I9IYC-18" value="bluethoot" style="verticalAlign=top;align=left;spacingTop=8;spacingLeft=2;spacingRight=12;shape=cube;size=10;direction=south;fontStyle=4;html=1;whiteSpace=wrap;" vertex="1" parent="1">
          <mxGeometry x="600" y="330" width="180" height="50" as="geometry" />
        </mxCell>
        <mxCell id="9D67T1jhqR6nWc_I9IYC-19" value="mixtral model" style="html=1;whiteSpace=wrap;" vertex="1" parent="1">
          <mxGeometry x="330" y="430" width="110" height="50" as="geometry" />
        </mxCell>
        <mxCell id="9D67T1jhqR6nWc_I9IYC-20" value="Curapeces model" style="html=1;whiteSpace=wrap;" vertex="1" parent="1">
          <mxGeometry x="60" y="490" width="110" height="50" as="geometry" />
        </mxCell>
        <mxCell id="9D67T1jhqR6nWc_I9IYC-22" value="csv catalog" style="html=1;whiteSpace=wrap;" vertex="1" parent="1">
          <mxGeometry x="330" y="490" width="110" height="50" as="geometry" />
        </mxCell>
        <mxCell id="9D67T1jhqR6nWc_I9IYC-23" value="datasets fishdiases" style="html=1;whiteSpace=wrap;" vertex="1" parent="1">
          <mxGeometry x="190" y="490" width="110" height="50" as="geometry" />
        </mxCell>
        <mxCell id="9D67T1jhqR6nWc_I9IYC-24" value="Database sql&lt;div&gt;products&lt;/div&gt;" style="html=1;whiteSpace=wrap;" vertex="1" parent="1">
          <mxGeometry x="60" y="360" width="110" height="50" as="geometry" />
        </mxCell>
        <mxCell id="9D67T1jhqR6nWc_I9IYC-26" value="car" style="html=1;whiteSpace=wrap;" vertex="1" parent="1">
          <mxGeometry x="190" y="360" width="110" height="50" as="geometry" />
        </mxCell>
        <mxCell id="9D67T1jhqR6nWc_I9IYC-27" value="database user" style="html=1;whiteSpace=wrap;" vertex="1" parent="1">
          <mxGeometry x="330" y="360" width="110" height="50" as="geometry" />
        </mxCell>
        <mxCell id="9D67T1jhqR6nWc_I9IYC-28" value="cordenates fishtank" style="html=1;whiteSpace=wrap;" vertex="1" parent="1">
          <mxGeometry x="190" y="430" width="110" height="50" as="geometry" />
        </mxCell>
        <mxCell id="9D67T1jhqR6nWc_I9IYC-29" value="EAFIT server" style="verticalAlign=top;align=left;spacingTop=8;spacingLeft=2;spacingRight=12;shape=cube;size=10;direction=south;fontStyle=4;html=1;whiteSpace=wrap;" vertex="1" parent="1">
          <mxGeometry x="580" y="420" width="260" height="150" as="geometry" />
        </mxCell>
        <mxCell id="9D67T1jhqR6nWc_I9IYC-30" value="influx db" style="html=1;whiteSpace=wrap;" vertex="1" parent="1">
          <mxGeometry x="600" y="460" width="110" height="50" as="geometry" />
        </mxCell>
      </root>
    </mxGraphModel>
  </diagram>
</mxfile>
